<svg width="62" height="62" xmlns="http://www.w3.org/2000/svg"><path d="M31 0C13.88 0 0 13.88 0 31c0 17.12 13.88 31 31 31 17.12 0 31-13.88 31-31C62 13.88 48.12 0 31 0zm-1.162 16.092c.228-.005.466.03.671.03.083 0 .16-.007.227-.024 7.375.268 13.81 6.972 13.677 14.347 0 .67.268 1.743-.805 1.743s-.805-1.073-.805-1.877a23.832 23.832 0 0 0-.48-2.725 16.516 16.516 0 0 0-.747-2.355 11.716 11.716 0 0 0-1.657-2.886c-1.992-2.516-5.018-3.959-9.317-4.637-.67-.134-1.61 0-1.61-.805 0-.697.402-.812.846-.811zm10.15 14.621c-1.207.134-.94-.939-1.073-1.609-.805-4.693-2.414-6.436-7.24-7.509-.671-.134-1.743 0-1.61-1.072.135-1.073 1.207-.67 1.878-.536 4.827.536 8.715 4.558 8.715 9.117-.134.536.268 1.475-.67 1.61zm-2.95-2.413c0 .536 0 1.206-.805 1.34-.536 0-.805-.402-.939-.938-.134-2.011-1.207-3.084-3.217-3.353-.537-.134-1.207-.268-.94-1.073.135-.536.67-.536 1.208-.536 2.28-.133 4.693 2.28 4.693 4.56zm7.508 14.75c-.805 2.279-3.62 4.558-6.034 4.558-.268-.134-.939-.134-1.609-.402-10.458-4.559-18.235-11.934-22.526-22.66-1.475-3.487.134-6.57 3.755-7.777a2.615 2.615 0 0 1 2.01 0c1.61.536 5.498 6.034 5.632 7.643.134 1.34-.805 2.01-1.609 2.547-1.609 1.073-1.609 2.548-.939 4.023 1.61 3.486 4.29 5.765 7.643 7.375 1.207.536 2.414.536 3.218-.805 1.475-2.28 3.352-2.28 5.363-.805.939.67 2.011 1.341 2.95 2.146 1.342 1.072 2.95 2.01 2.146 4.156z" fill="#935BBE" fill-rule="nonzero"></path></svg>